<?xml version="1.0" encoding="UTF-8" standalone="no"?>
<svg
   xmlns:dc="http://purl.org/dc/elements/1.1/"
   xmlns:cc="http://creativecommons.org/ns#"
   xmlns:rdf="http://www.w3.org/1999/02/22-rdf-syntax-ns#"
   xmlns:svg="http://www.w3.org/2000/svg"
   xmlns="http://www.w3.org/2000/svg"
   xmlns:sodipodi="http://sodipodi.sourceforge.net/DTD/sodipodi-0.dtd"
   xmlns:inkscape="http://www.inkscape.org/namespaces/inkscape"
   width="21.008621mm"
   height="28.762676mm"
   viewBox="0 0 21.008621 28.762676"
   version="1.1"
   id="svg8"
   sodipodi:docname="blue_orange2.svg"
   inkscape:version="1.0.2-2 (e86c870879, 2021-01-15)">
  <defs
     id="defs2">
    <clipPath
       clipPathUnits="userSpaceOnUse"
       id="clipPath26">
      <path
         d="M 0,214.901 H 214.901 V 0 H 0 Z"
         id="path24" />
    </clipPath>
  </defs>
  <sodipodi:namedview
     id="base"
     pagecolor="#ffffff"
     bordercolor="#666666"
     borderopacity="1.0"
     inkscape:pageopacity="0.0"
     inkscape:pageshadow="2"
     inkscape:zoom="1.979899"
     inkscape:cx="46.514065"
     inkscape:cy="1.422939"
     inkscape:document-units="mm"
     inkscape:current-layer="g22"
     inkscape:document-rotation="0"
     showgrid="false"
     inkscape:window-width="1920"
     inkscape:window-height="1017"
     inkscape:window-x="-8"
     inkscape:window-y="-1"
     inkscape:window-maximized="1"
     fit-margin-top="0"
     fit-margin-left="0"
     fit-margin-right="0"
     fit-margin-bottom="0" />
  <metadata
     id="metadata5">
    <rdf:RDF>
      <cc:Work
         rdf:about="">
        <dc:format>image/svg+xml</dc:format>
        <dc:type
           rdf:resource="http://purl.org/dc/dcmitype/StillImage" />
        <dc:title></dc:title>
      </cc:Work>
    </rdf:RDF>
  </metadata>
  <g
     inkscape:label="Layer 1"
     inkscape:groupmode="layer"
     id="layer1"
     transform="translate(-80.021953,-74.69292)">
    <g
       id="g22"
       clip-path="url(#clipPath26)"
       transform="matrix(0.35277777,0,0,-0.35277777,45.308867,104.57034)">
      <g
         id="g68"
         transform="translate(128.1753,84.6919)">
        <path
           d="m 0,0 c -16.419,0 -29.776,-13.357 -29.776,-29.776 0,-14.662 21.366,-41.489 25.649,-46.718 L 0,-81.532 l 4.127,5.038 c 4.283,5.229 25.649,32.056 25.649,46.718 C 29.776,-13.357 16.419,0 0,0"
           style="fill:#002b49;fill-opacity:1;fill-rule:nonzero;stroke:none"
           id="path70" />
      </g>
      <g
         id="g84"
         transform="translate(152.6138,54.9155)">
        <path
           d="m 0,0 c 0,-13.498 -24.441,-43.337 -24.441,-43.337 0,0 -24.441,29.839 -24.441,43.337 0,13.498 10.943,24.441 24.441,24.441 C -10.942,24.441 0,13.498 0,0"
           style="fill:#ffd2a0;fill-opacity:1;fill-rule:nonzero;stroke:none"
           id="path86" />
      </g>
      <g
         id="g88"
         transform="translate(137.0278,55.7124)">
        <path
           d="m 0,0 c 0,-4.891 -3.965,-8.855 -8.855,-8.855 -4.89,0 -8.855,3.964 -8.855,8.855 0,4.89 3.965,8.855 8.855,8.855 C -3.965,8.855 0,4.89 0,0"
           style="fill:#002b49;fill-opacity:1;fill-rule:nonzero;stroke:none"
           id="path90" />
      </g>
    </g>
  </g>
</svg>
