<?xml version="1.0" encoding="UTF-8" standalone="no"?>
<svg
   xmlns:dc="http://purl.org/dc/elements/1.1/"
   xmlns:cc="http://creativecommons.org/ns#"
   xmlns:rdf="http://www.w3.org/1999/02/22-rdf-syntax-ns#"
   xmlns:svg="http://www.w3.org/2000/svg"
   xmlns="http://www.w3.org/2000/svg"
   xmlns:sodipodi="http://sodipodi.sourceforge.net/DTD/sodipodi-0.dtd"
   xmlns:inkscape="http://www.inkscape.org/namespaces/inkscape"
   width="21.008621mm"
   height="28.762676mm"
   viewBox="0 0 21.008621 28.762676"
   version="1.1"
   id="svg8"
   sodipodi:docname="blue_blue.svg"
   inkscape:version="1.0.2-2 (e86c870879, 2021-01-15)">
  <defs
     id="defs2">
    <clipPath
       clipPathUnits="userSpaceOnUse"
       id="clipPath26">
      <path
         d="M 0,214.901 H 214.901 V 0 H 0 Z"
         id="path24" />
    </clipPath>
  </defs>
  <sodipodi:namedview
     id="base"
     pagecolor="#ffffff"
     bordercolor="#666666"
     borderopacity="1.0"
     inkscape:pageopacity="0.0"
     inkscape:pageshadow="2"
     inkscape:zoom="256"
     inkscape:cx="66.274081"
     inkscape:cy="57.581381"
     inkscape:document-units="mm"
     inkscape:current-layer="g22"
     inkscape:document-rotation="0"
     showgrid="false"
     inkscape:window-width="1920"
     inkscape:window-height="1017"
     inkscape:window-x="-8"
     inkscape:window-y="-1"
     inkscape:window-maximized="1"
     fit-margin-top="0"
     fit-margin-left="0"
     fit-margin-right="0"
     fit-margin-bottom="0" />
  <metadata
     id="metadata5">
    <rdf:RDF>
      <cc:Work
         rdf:about="">
        <dc:format>image/svg+xml</dc:format>
        <dc:type
           rdf:resource="http://purl.org/dc/dcmitype/StillImage" />
        <dc:title></dc:title>
      </cc:Work>
    </rdf:RDF>
  </metadata>
  <g
     inkscape:label="Layer 1"
     inkscape:groupmode="layer"
     id="layer1"
     transform="translate(-80.021953,-74.69292)">
    <g
       id="g22"
       clip-path="url(#clipPath26)"
       transform="matrix(0.35277777,0,0,-0.35277777,45.308867,104.57034)">
      <g
         id="g68"
         transform="translate(128.1753,84.6919)">
        <path
           d="m 0,0 c -16.419,0 -29.776,-13.357 -29.776,-29.776 0,-14.662 21.366,-41.489 25.649,-46.718 L 0,-81.532 l 4.127,5.038 c 4.283,5.229 25.649,32.056 25.649,46.718 C 29.776,-13.357 16.419,0 0,0"
           style="fill:#002b49;fill-opacity:1;fill-rule:nonzero;stroke:none"
           id="path70" />
      </g>
      <g
         id="g88"
         transform="translate(137.0278,55.7124)">
        <path
           d="m 0,0 c 0,-4.891 -3.965,-8.855 -8.855,-8.855 -4.89,0 -8.855,3.964 -8.855,8.855 0,4.89 3.965,8.855 8.855,8.855 C -3.965,8.855 0,4.89 0,0"
           style="fill:#002b49;fill-opacity:1;fill-rule:nonzero;stroke:none"
           id="path90" />
      </g>
      <path
         style="fill:#407ec9;fill-opacity:1;stroke-width:0.178571"
         d="M 38.070981,95.299914 C 35.569408,92.147911 30.286343,85.053005 27.606938,81.247205 15.174867,63.588809 8.3393723,50.204375 7.3211786,41.526104 6.9527378,38.385808 7.5628963,33.463483 8.783668,29.727777 11.450201,21.56787 17.079759,14.910897 24.691195,10.917069 39.689074,3.0474698 58.277091,8.1424056 67.299463,22.595903 c 3.754812,6.015069 5.597968,14.037844 4.613159,20.079874 -1.742286,10.689309 -12.369334,29.143432 -29.435863,51.116071 -1.46848,1.890625 -2.71948,3.433095 -2.78,3.427709 -0.06052,-0.0054 -0.792119,-0.869223 -1.625778,-1.919643 z m 4.821634,-45.226067 c 3.410875,-0.945202 6.082319,-3.234597 7.590791,-6.505213 0.807305,-1.750369 1.054737,-2.937362 1.042269,-5 -0.01999,-3.307493 -1.135389,-5.992418 -3.451675,-8.308703 -2.316285,-2.316286 -5.00121,-3.431682 -8.308703,-3.451675 -2.154429,-0.01302 -3.2932,0.238391 -5.178571,1.143305 -4.252593,2.0411 -6.700709,5.922763 -6.69379,10.613484 0.0032,2.149557 0.336598,3.681939 1.167688,5.366521 1.493562,3.027383 4.48355,5.45325 7.671141,6.223831 1.655425,0.400187 4.561241,0.361723 6.16085,-0.08155 z"
         id="path950"
         transform="matrix(0.75000002,0,0,-0.75000002,98.399301,84.691901)" />
    </g>
  </g>
</svg>
